{
  "source": "C:\\Users\\Peter\\Desktop\\stuff\\MIUN\\quantitative_research\\video_compression\\videos\\BVI-HD\\BVI-HD_CDVL_videos\\ORIG\\ParkPlay_1920x1080_50fps.mp4",
  "output": "C:\\Users\\Peter\\Desktop\\stuff\\MIUN\\quantitative_research\\video_compression\\compressed_videos\\BVI-HD\\av1\\1\\ParkPlay_1920x1080_50fps_av1.mkv",
  "codec": "av1",
  "ok": "Input #0, mov,mp4,m4a,3gp,3g2,mj2, from 'C:\\Users\\Peter\\Desktop\\stuff\\MIUN\\quantitative_research\\video_compression\\videos\\BVI-HD\\BVI-HD_CDVL_videos\\ORIG\\ParkPlay_1920x1080_50fps.mp4':\n  Metadata:\n    major_brand     : isom\n    minor_version   : 512\n    compatible_brands: isomiso2avc1mp41\n    encoder         : Lavf54.28.101\n  Duration: 00:00:05.00, start: 0.000000, bitrate: 620563 kb/s\n  Stream #0:0[0x1](und): Video: h264 (High 4:4:4 Predictive) (avc1 / 0x31637661), yuv420p(progressive), 1920x1080, 620558 kb/s, 50 fps, 50 tbr, 50 tbn (default)\n    Metadata:\n      handler_name    : VideoHandler\n      vendor_id       : [0][0][0][0]\n[out#0/matroska @ 000002818b8cf0c0] Codec AVOption b:a (set bitrate (in bits/s)) has not been used for any stream. The most likely reason is either wrong type (e.g. a video option with no video streams) or that it is a private option of some decoder which was not actually used for any stream.\nStream mapping:\n  Stream #0:0 -> #0:0 (h264 (native) -> av1 (libsvtav1))\nPress [q] to stop, [?] for help\nSvt[info]: -------------------------------------------\nSvt[info]: SVT [version]:\tSVT-AV1 Encoder Lib v3.1.0-19-g6ecfe8ec\nSvt[info]: SVT [build]  :\tGCC 15.2.0\t 64 bit\nSvt[info]: LIB Build date: Aug 17 2025 11:37:13\nSvt[info]: -------------------------------------------\nSvt[info]: Level of Parallelism: 5\nSvt[info]: Number of PPCS 93\nSvt[info]: [asm level on system : up to avx2]\nSvt[info]: [asm level selected : up to avx2]\nSvt[info]: -------------------------------------------\nSvt[info]: SVT [config]: main profile\ttier (auto)\tlevel (auto)\nSvt[info]: SVT [config]: width / height / fps numerator / fps denominator \t\t: 1920 / 1080 / 50 / 1\nSvt[info]: SVT [config]: bit-depth / color format \t\t\t\t\t: 8 / YUV420\nSvt[info]: SVT [config]: preset / tune / pred struct \t\t\t\t\t: 4 / PSNR / random access\nSvt[info]: SVT [config]: gop size / mini-gop size / key-frame type \t\t\t: 321 / 16 / key frame\nSvt[info]: SVT [config]: BRC mode / target bitrate (kbps)\t\t\t\t: VBR / 1000 \nSvt[info]: SVT [config]: AQ mode / Variance Boost \t\t\t\t\t: 2 / 0\nSvt[info]: SVT [config]: sharpness / luminance-based QP bias \t\t\t\t: 0 / 0\nSvt[info]: SVT [config]: QP scale compress strength \t\t\t\t\t: 0\nSvt[info]: -------------------------------------------\nOutput #0, matroska, to 'C:\\Users\\Peter\\Desktop\\stuff\\MIUN\\quantitative_research\\video_compression\\compressed_videos\\BVI-HD\\av1\\1\\ParkPlay_1920x1080_50fps_av1.mkv':\n  Metadata:\n    major_brand     : isom\n    minor_version   : 512\n    compatible_brands: isomiso2avc1mp41\n    encoder         : Lavf62.3.100\n  Stream #0:0(und): Video: av1 (AV01 / 0x31305641), yuv420p(tv, progressive), 1920x1080, q=2-31, 1000 kb/s, 50 fps, 1k tbn (default)\n    Metadata:\n      encoder         : Lavc62.11.100 libsvtav1\n      handler_name    : VideoHandler\n      vendor_id       : [0][0][0][0]\n    Side data:\n      cpb: bitrate max/min/avg: 0/0/1000000 buffer size: 1000000 vbv_delay: N/A\nframe=    0 fps=0.0 q=0.0 size=       0KiB time=N/A bitrate=N/A speed=N/A elapsed=0:00:01.10    \nframe=    0 fps=0.0 q=0.0 size=       0KiB time=N/A bitrate=N/A speed=N/A elapsed=0:00:01.65    \nframe=    0 fps=0.0 q=0.0 size=       0KiB time=N/A bitrate=N/A speed=N/A elapsed=0:00:02.28    \nframe=    0 fps=0.0 q=0.0 size=       0KiB time=N/A bitrate=N/A speed=N/A elapsed=0:00:02.90    \nframe=    0 fps=0.0 q=0.0 size=       0KiB time=N/A bitrate=N/A speed=N/A elapsed=0:00:03.58    \nframe=    0 fps=0.0 q=0.0 size=       0KiB time=N/A bitrate=N/A speed=N/A elapsed=0:00:04.12    \nframe=    0 fps=0.0 q=0.0 size=       0KiB time=N/A bitrate=N/A speed=N/A elapsed=0:00:04.62    \nframe=    0 fps=0.0 q=0.0 size=       0KiB time=N/A bitrate=N/A speed=N/A elapsed=0:00:05.14    \nframe=    0 fps=0.0 q=0.0 size=       0KiB time=N/A bitrate=N/A speed=N/A elapsed=0:00:05.65    \nframe=    0 fps=0.0 q=0.0 size=       0KiB time=N/A bitrate=N/A speed=N/A elapsed=0:00:06.19    \nframe=    1 fps=0.1 q=50.0 size=       1KiB time=00:00:00.00 bitrate=N/A speed=   0x elapsed=0:00:06.73    \nframe=    1 fps=0.1 q=50.0 size=       1KiB time=00:00:00.00 bitrate=N/A speed=   0x elapsed=0:00:07.27    \nframe=    1 fps=0.1 q=50.0 size=       1KiB time=00:00:00.00 bitrate=N/A speed=   0x elapsed=0:00:07.80    \nframe=    4 fps=0.5 q=61.0 size=       1KiB time=00:00:00.06 bitrate=  95.1kbits/s speed=0.00719x elapsed=0:00:08.34    \nframe=    8 fps=0.9 q=60.0 size=       1KiB time=00:00:00.14 bitrate=  40.7kbits/s speed=0.0157x elapsed=0:00:08.90    \nframe=   12 fps=1.3 q=59.0 size=       1KiB time=00:00:00.22 bitrate=  25.9kbits/s speed=0.0231x elapsed=0:00:09.51    \nframe=   16 fps=1.6 q=58.0 size=       1KiB time=00:00:00.30 bitrate=  19.0kbits/s speed=0.0298x elapsed=0:00:10.05    \nframe=   20 fps=1.9 q=57.0 size=       1KiB time=00:00:00.38 bitrate=  15.0kbits/s speed=0.0357x elapsed=0:00:10.63    \nframe=   23 fps=2.0 q=59.0 size=       1KiB time=00:00:00.44 bitrate=  13.0kbits/s speed=0.0392x elapsed=0:00:11.21    \nframe=   25 fps=2.1 q=56.0 size=       1KiB time=00:00:00.48 bitrate=  11.9kbits/s speed=0.0407x elapsed=0:00:11.80    \nframe=   28 fps=2.3 q=58.0 size=       1KiB time=00:00:00.54 bitrate=  10.6kbits/s speed=0.0437x elapsed=0:00:12.34    \nframe=   32 fps=2.5 q=58.0 size=       1KiB time=00:00:00.62 bitrate=   9.2kbits/s speed=0.0481x elapsed=0:00:12.89    \nframe=   36 fps=2.7 q=57.0 size=       1KiB time=00:00:00.68 bitrate=   8.4kbits/s speed=0.0505x elapsed=0:00:13.45    \nframe=   39 fps=2.8 q=60.0 size=       1KiB time=00:00:00.76 bitrate=   7.5kbits/s speed=0.0541x elapsed=0:00:14.04    \nframe=   40 fps=2.7 q=58.0 size=       1KiB time=00:00:00.78 bitrate=   7.3kbits/s speed=0.0535x elapsed=0:00:14.56    \nframe=   43 fps=2.8 q=60.0 size=       1KiB time=00:00:00.84 bitrate=   6.8kbits/s speed=0.0552x elapsed=0:00:15.22    \nframe=   46 fps=2.9 q=60.0 size=       1KiB time=00:00:00.90 bitrate=   6.3kbits/s speed=0.0569x elapsed=0:00:15.81    \nframe=   51 fps=3.1 q=60.0 size=       1KiB time=00:00:00.98 bitrate=   5.8kbits/s speed=0.0599x elapsed=0:00:16.35    \nframe=   54 fps=3.2 q=60.0 size=       1KiB time=00:00:01.06 bitrate=   5.4kbits/s speed=0.0627x elapsed=0:00:16.91    \nframe=   57 fps=3.3 q=56.0 size=       1KiB time=00:00:01.10 bitrate=   5.2kbits/s speed=0.063x elapsed=0:00:17.46    \nframe=   62 fps=3.4 q=62.0 size=       1KiB time=00:00:01.22 bitrate=   4.7kbits/s speed=0.0676x elapsed=0:00:18.04    \nframe=   68 fps=3.6 q=63.0 size=       1KiB time=00:00:01.30 bitrate=   4.4kbits/s speed=0.0698x elapsed=0:00:18.63    \nframe=   73 fps=3.8 q=56.0 size=       1KiB time=00:00:01.44 bitrate=   4.0kbits/s speed=0.0748x elapsed=0:00:19.24    \nframe=   77 fps=3.9 q=60.0 size=       1KiB time=00:00:01.52 bitrate=   3.8kbits/s speed=0.0766x elapsed=0:00:19.84    \nframe=   84 fps=4.1 q=63.0 size=       1KiB time=00:00:01.64 bitrate=   3.5kbits/s speed=0.0804x elapsed=0:00:20.38    \nframe=   88 fps=4.2 q=63.0 size=       1KiB time=00:00:01.74 bitrate=   3.3kbits/s speed=0.0831x elapsed=0:00:20.93    \nframe=   93 fps=4.3 q=60.0 size=       1KiB time=00:00:01.84 bitrate=   3.1kbits/s speed=0.0856x elapsed=0:00:21.48    \nframe=   97 fps=4.4 q=50.0 size=       1KiB time=00:00:01.92 bitrate=   3.0kbits/s speed=0.0871x elapsed=0:00:22.05    \nframe=  102 fps=4.5 q=63.0 size=       1KiB time=00:00:02.02 bitrate=   2.8kbits/s speed=0.0894x elapsed=0:00:22.59    \nframe=  108 fps=4.7 q=63.0 size=       1KiB time=00:00:02.14 bitrate=   2.7kbits/s speed=0.0926x elapsed=0:00:23.12    \nframe=  110 fps=4.7 q=63.0 size=       1KiB time=00:00:02.18 bitrate=   2.6kbits/s speed=0.0923x elapsed=0:00:23.62    \nframe=  117 fps=4.8 q=60.0 size=       1KiB time=00:00:02.32 bitrate=   2.5kbits/s speed=0.096x elapsed=0:00:24.15    \nframe=  123 fps=5.0 q=62.0 size=       1KiB time=00:00:02.44 bitrate=   2.3kbits/s speed=0.0987x elapsed=0:00:24.71    \nframe=  125 fps=4.9 q=60.0 size=       1KiB time=00:00:02.48 bitrate=   2.3kbits/s speed=0.098x elapsed=0:00:25.30    \nframe=  130 fps=5.0 q=63.0 size=       1KiB time=00:00:02.58 bitrate=   2.2kbits/s speed=0.0999x elapsed=0:00:25.83    \nframe=  136 fps=5.2 q=63.0 size=       1KiB time=00:00:02.68 bitrate=   2.1kbits/s speed=0.101x elapsed=0:00:26.40    \nframe=  141 fps=5.2 q=60.0 size=       1KiB time=00:00:02.80 bitrate=   2.0kbits/s speed=0.104x elapsed=0:00:27.01    \nframe=  145 fps=5.3 q=51.0 size=       1KiB time=00:00:02.86 bitrate=   2.0kbits/s speed=0.104x elapsed=0:00:27.57    \nframe=  150 fps=5.3 q=63.0 size=       1KiB time=00:00:02.98 bitrate=   1.9kbits/s speed=0.106x elapsed=0:00:28.13    \nframe=  161 fps=5.6 q=51.0 size=       1KiB time=00:00:03.20 bitrate=   1.8kbits/s speed=0.112x elapsed=0:00:28.68    \nframe=  161 fps=5.5 q=51.0 size=       1KiB time=00:00:03.20 bitrate=   1.8kbits/s speed=0.109x elapsed=0:00:29.24    \nframe=  169 fps=5.7 q=57.0 size=       1KiB time=00:00:03.36 bitrate=   1.7kbits/s speed=0.113x elapsed=0:00:29.81    \nframe=  177 fps=5.8 q=51.0 size=       1KiB time=00:00:03.52 bitrate=   1.6kbits/s speed=0.116x elapsed=0:00:30.34    \nframe=  177 fps=5.7 q=51.0 size=       1KiB time=00:00:03.52 bitrate=   1.6kbits/s speed=0.114x elapsed=0:00:30.88    \nframe=  185 fps=5.9 q=57.0 size=       1KiB time=00:00:03.68 bitrate=   1.6kbits/s speed=0.117x elapsed=0:00:31.40    \nframe=  193 fps=6.0 q=51.0 size=       1KiB time=00:00:03.84 bitrate=   1.5kbits/s speed=0.12x elapsed=0:00:31.93    \nframe=  193 fps=5.9 q=51.0 size=       1KiB time=00:00:03.84 bitrate=   1.5kbits/s speed=0.118x elapsed=0:00:32.46    \nframe=  199 fps=6.0 q=62.0 size=       1KiB time=00:00:03.96 bitrate=   1.4kbits/s speed=0.12x elapsed=0:00:33.07    \nframe=  205 fps=6.1 q=60.0 size=       1KiB time=00:00:04.08 bitrate=   1.4kbits/s speed=0.121x elapsed=0:00:33.59    \nframe=  209 fps=6.1 q=49.0 size=       1KiB time=00:00:04.16 bitrate=   1.4kbits/s speed=0.122x elapsed=0:00:34.12    \nframe=  217 fps=6.3 q=57.0 size=       1KiB time=00:00:04.32 bitrate=   1.3kbits/s speed=0.125x elapsed=0:00:34.69    \nframe=  225 fps=6.4 q=50.0 size=       1KiB time=00:00:04.48 bitrate=   1.3kbits/s speed=0.127x elapsed=0:00:35.26    \nframe=  225 fps=6.3 q=50.0 size=       1KiB time=00:00:04.48 bitrate=   1.3kbits/s speed=0.125x elapsed=0:00:35.80    \nframe=  233 fps=6.4 q=58.0 size=       1KiB time=00:00:04.64 bitrate=   1.2kbits/s speed=0.128x elapsed=0:00:36.33    \n[out#0/matroska @ 000002818b8cf0c0] video:530KiB audio:0KiB subtitle:0KiB other streams:0KiB global headers:0KiB muxing overhead: 0.349762%\nframe=  250 fps=6.8 q=63.0 Lsize=     532KiB time=00:00:04.98 bitrate= 874.3kbits/s speed=0.136x elapsed=0:00:36.73    \n",
  "seconds": 37.512685775756836,
  "probe_out": {}
}